<svg width="22" height="22" viewBox="0 0 22 22" fill="none" xmlns="http://www.w3.org/2000/svg">
<path d="M21.7826 11.2527C21.7826 10.505 21.7219 9.7532 21.5926 9.01758H11.217V13.2535H17.1586C16.9121 14.6196 16.1199 15.8282 14.9598 16.5961V19.3446H18.5046C20.5862 17.4287 21.7826 14.5994 21.7826 11.2527Z" fill="#4285F4"/>
<path d="M11.2175 22.0006C14.1842 22.0006 16.6862 21.0265 18.509 19.345L14.9643 16.5965C13.9781 17.2675 12.7049 17.6474 11.2215 17.6474C8.35178 17.6474 5.91856 15.7114 5.04551 13.1084H1.3876V15.9418C3.25496 19.6563 7.05837 22.0006 11.2175 22.0006Z" fill="#34A853"/>
<path d="M5.04142 13.1085C4.58064 11.7423 4.58064 10.263 5.04142 8.89684V6.06348H1.38755C-0.17262 9.17169 -0.17262 12.8336 1.38755 15.9418L5.04142 13.1085Z" fill="#FBBC04"/>
<path d="M11.2175 4.35386C12.7858 4.3296 14.3015 4.91972 15.4373 6.00295L18.5778 2.8624C16.5892 0.995046 13.9498 -0.0315938 11.2175 0.000741277C7.05842 0.000741277 3.255 2.34504 1.38765 6.06357L5.04152 8.89694C5.91052 6.28992 8.34778 4.35386 11.2175 4.35386Z" fill="#EA4335"/>
</svg>
